<svg height="496pt" viewBox="0 -24 496 496" width="496pt" xmlns="http://www.w3.org/2000/svg"><g fill="#231f20"><path d="m448 224c0-123.710938-100.289062-224-224-224s-224 100.289062-224 224 100.289062 224 224 224h216c4.417969 0 8-3.582031 8-8s-3.582031-8-8-8h-133.023438c85.078126-34.019531 140.914063-116.371094 141.023438-208zm-224 208c-114.875 0-208-93.125-208-208s93.125-208 208-208 208 93.125 208 208c-.132812 114.820312-93.179688 207.867188-208 208zm0 0"/><path d="m224 32c-106.039062 0-192 85.960938-192 192s85.960938 192 192 192 192-85.960938 192-192c-.125-105.988281-86.011719-191.875-192-192zm0 368c-97.203125 0-176-78.796875-176-176s78.796875-176 176-176 176 78.796875 176 176c-.109375 97.15625-78.84375 175.890625-176 176zm0 0"/><path d="m256 224c0-17.671875-14.328125-32-32-32s-32 14.328125-32 32 14.328125 32 32 32 32-14.328125 32-32zm-48 0c0-8.835938 7.164062-16 16-16s16 7.164062 16 16-7.164062 16-16 16-16-7.164062-16-16zm0 0"/><path d="m488 432h-24c-4.417969 0-8 3.582031-8 8s3.582031 8 8 8h24c4.417969 0 8-3.582031 8-8s-3.582031-8-8-8zm0 0"/><path d="m224 72c-26.507812 0-48 21.492188-48 48s21.492188 48 48 48 48-21.492188 48-48c-.027344-26.5-21.5-47.972656-48-48zm0 80c-17.671875 0-32-14.328125-32-32s14.328125-32 32-32 32 14.328125 32 32-14.328125 32-32 32zm0 0"/><path d="m224 280c-26.507812 0-48 21.492188-48 48s21.492188 48 48 48 48-21.492188 48-48c-.027344-26.5-21.5-47.972656-48-48zm0 80c-17.671875 0-32-14.328125-32-32s14.328125-32 32-32 32 14.328125 32 32-14.328125 32-32 32zm0 0"/><path d="m328 176c-26.507812 0-48 21.492188-48 48s21.492188 48 48 48 48-21.492188 48-48c-.027344-26.5-21.5-47.972656-48-48zm0 80c-17.671875 0-32-14.328125-32-32s14.328125-32 32-32 32 14.328125 32 32-14.328125 32-32 32zm0 0"/><path d="m120 176c-26.507812 0-48 21.492188-48 48s21.492188 48 48 48 48-21.492188 48-48c-.027344-26.5-21.5-47.972656-48-48zm0 80c-17.671875 0-32-14.328125-32-32s14.328125-32 32-32 32 14.328125 32 32-14.328125 32-32 32zm0 0"/></g></svg>